<svg width="9" height="14" viewBox="0 0 9 14" fill="none" xmlns="http://www.w3.org/2000/svg">
<path d="M3.33333 11.6667C3.33333 12.5833 2.58333 13.3333 1.66667 13.3333C0.75 13.3333 0 12.5833 0 11.6667C0 10.75 0.75 10 1.66667 10C2.58333 10 3.33333 10.75 3.33333 11.6667ZM1.66667 5C0.75 5 0 5.75 0 6.66667C0 7.58333 0.75 8.33333 1.66667 8.33333C2.58333 8.33333 3.33333 7.58333 3.33333 6.66667C3.33333 5.75 2.58333 5 1.66667 5ZM1.66667 0C0.75 0 0 0.75 0 1.66667C0 2.58333 0.75 3.33333 1.66667 3.33333C2.58333 3.33333 3.33333 2.58333 3.33333 1.66667C3.33333 0.75 2.58333 0 1.66667 0ZM6.66667 3.33333C7.58333 3.33333 8.33333 2.58333 8.33333 1.66667C8.33333 0.75 7.58333 0 6.66667 0C5.75 0 5 0.75 5 1.66667C5 2.58333 5.75 3.33333 6.66667 3.33333ZM6.66667 5C5.75 5 5 5.75 5 6.66667C5 7.58333 5.75 8.33333 6.66667 8.33333C7.58333 8.33333 8.33333 7.58333 8.33333 6.66667C8.33333 5.75 7.58333 5 6.66667 5ZM6.66667 10C5.75 10 5 10.75 5 11.6667C5 12.5833 5.75 13.3333 6.66667 13.3333C7.58333 13.3333 8.33333 12.5833 8.33333 11.6667C8.33333 10.75 7.58333 10 6.66667 10Z" fill="#A4A7AE"/>
</svg>
